<mxfile host="app.diagrams.net" modified="2022-05-29T02:37:47.019Z" agent="5.0 (Windows NT 10.0; Win64; x64) AppleWebKit/537.36 (KHTML, like Gecko) Chrome/101.0.4951.67 Safari/537.36" etag="c18CC8Jd_FiqHrRCNRJf" version="18.1.3" type="github">
  <diagram id="bOl2_93r9J41XEx7FPzn" name="Page-1">
    <mxGraphModel dx="1022" dy="379" grid="1" gridSize="10" guides="1" tooltips="1" connect="1" arrows="1" fold="1" page="1" pageScale="1" pageWidth="827" pageHeight="1169" math="0" shadow="0">
      <root>
        <mxCell id="0" />
        <mxCell id="1" parent="0" />
        <mxCell id="gJbQc6dxg2gx2K5ovGyI-8" value="Http Request" style="edgeStyle=orthogonalEdgeStyle;rounded=0;orthogonalLoop=1;jettySize=auto;html=1;" parent="1" source="gJbQc6dxg2gx2K5ovGyI-1" target="gJbQc6dxg2gx2K5ovGyI-7" edge="1">
          <mxGeometry relative="1" as="geometry" />
        </mxCell>
        <mxCell id="gJbQc6dxg2gx2K5ovGyI-1" value="" style="whiteSpace=wrap;html=1;aspect=fixed;" parent="1" vertex="1">
          <mxGeometry x="20" y="20" width="260" height="260" as="geometry" />
        </mxCell>
        <mxCell id="gJbQc6dxg2gx2K5ovGyI-4" value="App Snake Game" style="text;html=1;strokeColor=none;fillColor=none;align=center;verticalAlign=middle;whiteSpace=wrap;rounded=0;" parent="1" vertex="1">
          <mxGeometry x="30" y="20" width="100" height="30" as="geometry" />
        </mxCell>
        <mxCell id="gJbQc6dxg2gx2K5ovGyI-38" style="edgeStyle=orthogonalEdgeStyle;rounded=0;orthogonalLoop=1;jettySize=auto;html=1;" parent="1" source="gJbQc6dxg2gx2K5ovGyI-7" target="gJbQc6dxg2gx2K5ovGyI-37" edge="1">
          <mxGeometry relative="1" as="geometry" />
        </mxCell>
        <mxCell id="gJbQc6dxg2gx2K5ovGyI-7" value="" style="whiteSpace=wrap;html=1;aspect=fixed;" parent="1" vertex="1">
          <mxGeometry x="390" y="55.5" width="185" height="185" as="geometry" />
        </mxCell>
        <mxCell id="gJbQc6dxg2gx2K5ovGyI-9" value="App Log Eventos" style="text;html=1;strokeColor=none;fillColor=none;align=center;verticalAlign=middle;whiteSpace=wrap;rounded=0;" parent="1" vertex="1">
          <mxGeometry x="400" y="60" width="100" height="30" as="geometry" />
        </mxCell>
        <mxCell id="gJbQc6dxg2gx2K5ovGyI-21" style="edgeStyle=orthogonalEdgeStyle;rounded=0;orthogonalLoop=1;jettySize=auto;html=1;" parent="1" source="gJbQc6dxg2gx2K5ovGyI-13" target="gJbQc6dxg2gx2K5ovGyI-20" edge="1">
          <mxGeometry relative="1" as="geometry" />
        </mxCell>
        <mxCell id="gJbQc6dxg2gx2K5ovGyI-13" value="Web" style="verticalLabelPosition=bottom;sketch=0;aspect=fixed;html=1;verticalAlign=top;strokeColor=none;align=center;outlineConnect=0;shape=mxgraph.citrix.browser;" parent="1" vertex="1">
          <mxGeometry x="50" y="70" width="47.5" height="72.5" as="geometry" />
        </mxCell>
        <mxCell id="gJbQc6dxg2gx2K5ovGyI-19" value="Redis Database" style="sketch=0;aspect=fixed;html=1;points=[];align=center;image;fontSize=12;image=img/lib/mscae/Cache_Redis_Product.svg;" parent="1" vertex="1">
          <mxGeometry x="670" y="144.25" width="50" height="42" as="geometry" />
        </mxCell>
        <mxCell id="gJbQc6dxg2gx2K5ovGyI-20" value="backend nodejs" style="outlineConnect=0;dashed=0;verticalLabelPosition=bottom;verticalAlign=top;align=center;html=1;shape=mxgraph.aws3.android;fillColor=#8CC64F;gradientColor=none;" parent="1" vertex="1">
          <mxGeometry x="160" y="76.25" width="50" height="60" as="geometry" />
        </mxCell>
        <mxCell id="gJbQc6dxg2gx2K5ovGyI-35" style="edgeStyle=orthogonalEdgeStyle;rounded=0;orthogonalLoop=1;jettySize=auto;html=1;entryX=0.5;entryY=0;entryDx=0;entryDy=0;" parent="1" source="gJbQc6dxg2gx2K5ovGyI-23" target="gJbQc6dxg2gx2K5ovGyI-33" edge="1">
          <mxGeometry relative="1" as="geometry" />
        </mxCell>
        <mxCell id="gJbQc6dxg2gx2K5ovGyI-23" value="backend nodejs" style="outlineConnect=0;dashed=0;verticalLabelPosition=bottom;verticalAlign=top;align=center;html=1;shape=mxgraph.aws3.android;fillColor=#8CC64F;gradientColor=none;" parent="1" vertex="1">
          <mxGeometry x="415" y="90" width="50" height="60" as="geometry" />
        </mxCell>
        <mxCell id="gJbQc6dxg2gx2K5ovGyI-30" style="edgeStyle=orthogonalEdgeStyle;rounded=0;orthogonalLoop=1;jettySize=auto;html=1;entryX=1;entryY=0.5;entryDx=0;entryDy=0;entryPerimeter=0;" parent="1" source="gJbQc6dxg2gx2K5ovGyI-27" target="gJbQc6dxg2gx2K5ovGyI-20" edge="1">
          <mxGeometry relative="1" as="geometry" />
        </mxCell>
        <mxCell id="gJbQc6dxg2gx2K5ovGyI-27" value="Socket.io" style="shape=image;verticalLabelPosition=bottom;verticalAlign=top;imageAspect=0;aspect=fixed;image=data:image/png,iVBORw0KGgoAAAANSUhEUgAAAOEAAADhCAMAAAAJbSJIAAAAh1BMVEX///8BAQEAAAD5+fn39/fHx8d7e3vw8PC5ubn8/Pyrq6uxsbHo6Oj09PTb29vg4OBiYmKgoKB0dHQzMzODg4PV1dXFxcWLi4uwsLAcHBxISEiWlpZNTU1ubm5VVVWjo6M/Pz8pKSkXFxc7OzsPDw+QkJAxMTFnZ2ddXV0iIiJLS0uZmZlDQ0PvAPQqAAANVklEQVR4nO1d6VriMBTVIAjKIruCIIioDL7/8w0FStu7pFluUvXz/JzBJqdN7p6bq6s//OEPVze9+n1/uvj8Gr6qE56Gs8/BtN+s92pVT84T7cl+sFF6zBov9duqJ+qCdnM6O3O41uH8m+V88pNoth8XBtwQz7dG80ewnDTsyBVprqfjqglo0Wo+OLLLf8tBvWoeHCae9HIsG9/wS/ZGIvQuJK/332tPNldy9C4kP7/Pan2Rppdy3D1WTS3BzTYIv5Tkvmp+tVE4fmeO81aVBAN+vxzHfmX87sLzO3O8r4Rf/dXWLCvCiuM6voK8XZrNMeXzNPtojLbzfX8/344GH887O6JKfdzEJbg3mNqJwWrQn/So2dV69bvR0pimUncR+fXWpZNK5r1r3PdKn3Vbny+NWCo1bEfgdsS2bDpH+9nGFer2lwYkldqGI5VDe6ifSjJTFx+oXm7ZHiRO+aLwxr12Fn6OwXhaRlKpF0kyFD50M0jCEU2/59cXeo5KPQe1cdpvWn5vfQGXp3W305JUqus/CIcmP/JhUs9i3s74U8cx4EqdssMmslNUBrQbGo4H9S85Voalhl9D3CPv6LwWtQkQSu6seYKDIBGHjuY7KiWu/dvcYAfxGczUuH3QUBS2xcfMUAeTOmg0pcuaF0pNJAeqswSDRxkeeYqCXuOEHkWpWYSQX2vAvl4xb4NRg9H8mfE1R1FIMdIEldrEi9k2uHcsQpFeorE8mTMYQSCyjGgpKi6sy1B7ZubhaekfxDX94E1HYtpWoAMnSnlqK1LRK7WQmbQduNXkZRDXaIIVhWg77zRFH4k3JAmKGhNW+CApPrk/8JMkGNABLQUZBFPP7o+jCEYL6ZEgjTg1cnvYhCRYdWqW1IxuOuOWeJS6jq8lICiR6rayCI9XqeoJXl31KIoO0mbwXQkyFK1VdFNqKfigxeglytCy3Yod/AxP48EB7Q33P8RetF1gz8QTYhd/TDSvlJCo6svm4XfEKoiZvksw1fpnhNNqM0NCUaiG95St0JqpnfYHc2KVmevqGf7rme+U7XAQl2XWIbZR1T/Tx98TryduUcv9gWCpJbbB0zSUp9hlii1Gk2D3W+mvboh5mn0IrOvDpyXzqK2UWZQE6wwzadHFBD99J22Dozo3m+rebbEhrzfuJjxm0ZUy+zFS2yYSEZtrUVV940TQMJJHbMXyyeK/GXhO2gLJFrQaEvmw5U5GH69Rv0nb4Ow02Ay5QPMty9e4fHYppJaYzZAtOOGy14NsIfXgN2sLjFKCVq4eXqd68xS/kWhObyoXbbcFLC/Q/z1WMLGCv1mlju22QG6CdieiH5fbTjLIElz24YgpnPQr/1vkFvpndsyQZV1czAv0Xfig/Cv86dBn2ubIFcu5pAzgh1Fs9KNejaa4ydmJbtVO6MtwriW08uwiH67IxwYdTWBoaXJ7uY0+YYw8byHg4prWeipOXSm67B3JJHY5C6JQDehckYc+Iu3QWogkMRTUtYebBuZO29/Q/PFJPBridlcY0+OVvsDJUxvsAf4oeIAURCF8TGBogFMxAvSb4F4TSHYq5VMz2iifPdqsjnlVY4zgK/Wyn3rlQgTm7EMHEJHy9Qx3gfASDhOgRRpWVdw+QYJea/QKmW54maJFGvQILhHp9LXxYVAKWZwD+ApCdh25wwT9Q7JgmyE5At9AyOAFrqWUeKFgFULXFga6QzqG//xT1BRgugXk5PtwkQYLc1MHi9RS4slAOgOLBYRzZIakQFfDiJyAfdFuNPiFQ1lsWMbIbYmeTl+gbRioroSs1xZbMPAz5W0WqC4Dhdhw9vxaMiS70CxEqA2DlCUwhxflDobA75Q33EANWxBdwRwsEhRqYK8VHFy4ggOUWJIyRjhtAN2xTERD8gFcQ+ZMiOAaPeAL8MgcfWjwiB/RbJEyJhnKuYCZwogVNaDcWTwdwx6QFi45hqImE5igvEg61M2d7RO3LMaAR1a2AP1jWUHzwhMUDqq3WXkCZZDosNzxQfE1eoV1QipMb8C/rwTHbH1x/EKUWoEUzSVDA01WwVNN7AFp6Td5AnSg0oAbyKqpudiIzPHa0zABzHsYNU0F2SP4d7Eg1Fzb3yJAiQB05NMq43kgZaHvg/IuNEoeIPdysb3ht5U5unVDHXzLBgnigkLzM43ggZyMzNj04dNsELnNnkMHMEn1LTAaRUKlmkYvxzH0ZerOAJo99Z/W8gq/QbSgKyDQIcZrmkpQkyZBq9WqZWgFLMjdVMQwHpa/niH0ks7/HCfQFgUwpHYSmq1fxBCq9pNzARn+5FUK4xinMNfvZwj34W9ieHaBf5EshfvwbJ5B3/8HX6sBZen5n/XJUzHUCEjbNx/0cuSiG7IYl5mqEqUDjE0DjioGKiuFFTRFCLV8AnZpqtphijtI7TOsXoUEZV4r8C3SOnWYWQyRW6P6IOSGfBKKnAK1kGbu+ISGHNi+koWZ+AL6+GmcBkaoAgQY8Nny3HhqKjUMjPymD4bJNfkctzYwLLgrYOQ3XY0wZSN/7FcTdhM9Jw7Ta2nMG6ZsxKNE6NhmbjDRbrJQolw0e2DDlOpWlA4l2/kN5i0uifxdWLNtxRMUjuyznwqGhGVVPjwpkJuBsG1xy+aAYeJCNK/HrlH1Jm3iw7RFphSguhA9n86lSM07kRgDfqnMdIGKci04KtHM57RCA1SWQQM7Z+tKnu0oglmjYTr0amjAYiI5CUCUPF/LuRJF6OragGsjZ5k+0gRfg/QmhPZ1XpxAISTVM4loinYtXeqVQVfofQtXsFD4BDdFCyRjEqBjP4VoDLRqZDYibjiVEAx1GgcuxKLxCeOMIgfXqDUasIk0jCQWI1tQ54sY38SFGGoXrv+p/rwBOnAiEFGkmksGO8eBuwlA/wHY/wId16lmYyFPbcJFCpOE+5L/twdao+FkzBFwFcK3iU6Z+goEtEYDN6pHByiROgCFyr5KCzXuCyljEkB1j2UlNNw8pSk6VhxQxiSA0TzCA0RHn7yOCSDtE/pkOGp5QdgscJn69KapQSsw+EWiJt0EYFjaRzA8AILBm6RAH4YUI7B5i0c+r7hG1S58vzDUg4d8p1DpOwcVi2s0RudMw64l0BNwVhj5NSqYdtEAZg24aCHarW4abFIgGKNbGDJJuYPFI5GPmHdEI12GgT4hlytAWtPpI+bKIdQwyjXFuHUi+15RC0KHvEk2XLCLGCFQFxG+awlez9a5vWyNRrvb3qpTILyMx/5w2UdGMFLjU9zBVOf5YZfHUhRe1qh82oUDlI8llRbINrBzMS7vU81i9Y9GZSwlU8Yf0copOFfmhHclMqDe82UZEfwRLTRaPSUY3JW4AIuZslWHP6JFY7q0lXO8O69wSLY8GISKl8wNy1O0S22iqPkTcFN2TQPaM3ATU1Pv7liWo2I2OCfSryadCfFrMZSnp37xMS9rwaVWRgqc+DMjX7ihonjzeaDbAg2NMKRCjaoVk9Ylahj1yqsGnqjhFiHC8eXS8U3F3YLkLQ6meU+XP01uQo97XxJR72iuh4m7glb6v+iGOzTJAXcTsfATqPue9K7iTn1FPqWBizysQmdEKZq2PmMb0RA9gbraz6oMEJdq6WJKvVjd6S9AVxyUbyQAap3yLu0m9rWB1K1rtkEl8v5DRp1PYh+Uolr62PszxNW71V6Um4HsveiQg4Ce4rehSN5g6ZKVp04QfAeKJEG3gn+6oinyrfEIZOs+16ACtmwTitXdyp2AvvDYueiAKmAWOkbniHuSoHvLMBRsPVGMbb9kIJsWqTePyCV9XinubYE5oCvITm/cy96gW3KGro2h0SJPpniLd7qTTvzLgbkzmgKSjz5NECd5nccjQ1Ag+EyY8cdHr6LGZJi+YTKCfUs+O1KK/oQu0x5UKkXJUvyM5FRsuWMpYjlYrndenM/Ye+cICp7t67MUl8H1xpQdWzS2R1pLp3GCtJa74GCHRlo/bKdcFXKptpf8sOJODt8lUKlNGJfqhmuR7W2q0QAXbBXHe5b3jGtTboEeBnwPk6Nkl8yRo+x37Oj4hStFYvTSedihnG/cbvD85E+A58F35j6OrPYiltzkWcMvdCClsyrh+OD7IXua5XkcYhm6Uke3Uo8c1cj9Hbf771p+YVdoiu5rSfPVhKSL+zjervX0Do9eB74N7gx46x1Jctm3USDdl09VQi+8/ZSfz7psMkeSajZtlirmzvhxtFLl9A5PfI/zAU/gTHHMUm0W8/txuyhkb9rdcb35Ml2szp3MTB4W64rwMzqfJtO60Ezwul59Pc9W76+FLm1GD4nixCDUSyQOy9SYVu5vn+JHvhK82M/VBdGrPHJo6bWzFL9oEpRCZxSW4+Hp06pbceqcAAF+86r5JWj1g3BMpG9l+w+h+SVNMrGKqpGfHHojBy2goae2VSR/SjB5ECGZPGRQdS6dQ6tpYD+X0ltUm0cvQ2vScLFaUnZP0++1+Rj07h4sjbPTzwfNb7j3WPQeG0MTI/T8m3/TyU9id0GvOV+8Kz1Wg/4kduGfNDrdyeN+9LFc7dIv9rb+Wi5G+/t67ztYLH/4Q+X4Dw7flVlWA7Q4AAAAAElFTkSuQmCC" parent="1" vertex="1">
          <mxGeometry x="210" y="200" width="50" height="50" as="geometry" />
        </mxCell>
        <mxCell id="gJbQc6dxg2gx2K5ovGyI-36" style="edgeStyle=orthogonalEdgeStyle;rounded=0;orthogonalLoop=1;jettySize=auto;html=1;" parent="1" source="gJbQc6dxg2gx2K5ovGyI-33" target="gJbQc6dxg2gx2K5ovGyI-19" edge="1">
          <mxGeometry relative="1" as="geometry">
            <mxPoint x="690" y="191" as="targetPoint" />
            <Array as="points">
              <mxPoint x="670" y="170" />
              <mxPoint x="670" y="170" />
            </Array>
          </mxGeometry>
        </mxCell>
        <mxCell id="gJbQc6dxg2gx2K5ovGyI-33" value="ORM Prisma" style="shape=image;verticalLabelPosition=bottom;verticalAlign=top;imageAspect=0;aspect=fixed;image=data:image/png,iVBORw0KGgoAAAANSUhEUgAAAOEAAADhCAMAAAAJbSJIAAAAkFBMVEX///8MNEsAMEgALEUAKkQAJkEAHjwGMkkAIj4AHzwAHz0AGzoAIT4AJEAALkcAJUAAGDgAFDb2+PnS2NwAETXt8PKyu8FBWWra3+Kcp69IX2+ps7qOm6TK0dW8xMkpSFyEkpxYbHsXPFJ2hpLl6eukrrVkdoM2UWOSn6h5iJNfcn9tfoqHlJ4iQ1dUZnXEzNFentajAAALN0lEQVR4nO2da3uqOhCFDxfFiqKiWO9axdqb+v//3bHU2onmzoTAfng/nuO2iYFk1sxK8t9/NTU1NTU1NTU1NRQmy+XEdhsMMp6Nwmaz3385226JGZbrZuRkROHzvziQ09B1bkThynZ70JmOHILR2HaLkBmGZAedoJHabhMua/euh443s90mVN469x10nMHSdqsQSfuPHXSiF9vNQuTFo/TQCf+dJWNFG0LH8V9tNwyLePswzfzQ/Vem002P3kHH39luGg6TEaODl2U/sd04FJ4jZg/9L9uNw2DeZHbQCaLYdvPyk/gBu4dO9812+/Lz6nM66Ljbyg/ikj3NZHTmtluYlyNjKfx7E223MCeLLr+DjvNUbZ2YCjvoRAfbjcwFZym8Uel8xvhe2NNwn203U5/YoU8zQUQMbbO6SnjXoHbQiz5OXZh3q2w6Y0jJXHx36HQJt9MjiHQGVVXCj8mnn/5kUcxyAAa1okp4yhjC6zP5DPofVlIJsyLuxuLn/5+f/v5bNZXwByPifvpd/g5gEBsVVMIr1lJ4y83ATzQ2NtuqB2MpdNzj7SNwJgorJ6KYETdIA+/BVNSrmhKeMMO1xvTvU2AuCoKKDeKMGXE3Qfl3CrKMnb291mowZiefQjBrxtHfIIL3swLE7A66hBpcgMC1Ukp4x04++Z/wgwnoYVChQRzS6zAZPfJ1ewe/RVgdgwYj4v7pxpD4aAIycdVRwtMWu4PO6G5ReAWFxbAiSjjhPKOPM+ak/fc/o5OVBitDL/de8d95H28OaV9YNpgRd0b3IcMNXSjeh40WK8Is915H6TFfAcOfUQWU8Ds9+XQlcB6jzzN4byughCcDdvccxoIAF5dW6ZWwIMftbyj/BgaxpVfCe06595sONfYEgxh45R7ExOWVey/0qTPJvDpKmF/uvYwQveBLzL+tohutgqjcyzSyQSXcndI/Uwp4EXfGb6r0ARC6lVkJ0wyWJG2WPvqqhBJOhR10BqyJEubH3XWhzVZgxou4MwKf+Y+hEn4qaU2YYbCEROzAOgXxt1vOwn4cCJZCh0yV3vMJBrFfSiXMj7h/4FWzYUBbSnf0sM3u2A2Pp41OIKLtl7AmLFwKHdEkCX+jEirh/RO7YzfIVOkDUAl3yzaIfIPlrdn8ygShhPk/RvGwyr0koSDPBAv7JXNHnwWq8EpDUD9bga+hSmV7sMq9JOKUNviewC9TOfFL7D/MhuUhVXrPGCphlgyxwERmKbzQEmsGoIRpWTlbsMu9JBKbnKbgaWiVpibM22tAMBB/FwxuOUKkWOKGzFLoSNbOYE2YnpcrHk65l0Rqd0wMy4nlEFFLfo4b0JHStRtYEy6FEj5ILYXftKSKLil4TEtRE+aWewncrdw3QiVcAnd0IkqQ/iFb34Vmqsj+IH4Ik083GrLZevidA9s1YYnk0w3pBNqwRO5oQbmXJJSWQ8/lSWdsJJJPvwTyaV7CHW1VCafy04za80a4o20W9mW2NN3oKVSUoJtDLLnMIR1xZygtbTBx17cmomJRuZfk3uzFZQ7iCOlVBh1RuZdENqK54gER5VoaRPmIO8NT88kQSthSTVgmxw3oqQl2qIQVhx+LhXTE/QPF7MX/flDYb9vY7J0qrPXfBI5igpeoCdsYRHG5l0R9MzMs1llQwmOFiDtDfd22645WirgzJFKl93zatLjLlHtJNCSCTXf0UClc+0Yrf/1hzx0tn3zKNQaEO7rQwr7IYElBr1Rmyx2dyOa4AXKp0nuWYMb2ClTCahH3DwO9EYCvQ6ewQZQs996Nod7fslMTDpSnmRwGIOiO9gsq7C9YR8vx0BaxY5CTKqgmnEqWe0metEMSGDy1MTvCRLbcS+JrzxJ7oIRVclnajGWcTw/kccQC60IRIkq63EuSx6QG3/sC3NHS5V4SgdmLS+IVudn74TBnSXLtDIU14bZpJawecf/QyZMOTMGqb9rizjhPR0jOMid8NfpGlXCi+Yzm3VKYQne0USWsUO4ledwXqwbcJ9w3qIRXajlugMhVKoJwR5tTwvFRayn8RsLsxQda3DvGasKSBksK+Z1NyyLc0ZzDnEUgCLsi3NF6EXcGgv+ugJrwXHeluNBGeHO2po89SyLtaYa1L1aNMZhOGyYOAP/Ui7gzcI61PJp1Rw/1pxnOvlgloEHQQE1YsdxLopcqvSd2QGG/i/GNEPHuXh59nInhDRSDWsg14VRP2F/BUq2EOxpZRKmWe0nQzIXQQxeipjNUDJYU0Pw+hDsa0+KuXu4laaJpVsIdjaiE1cu9JEpmLy6pGXf0JNc8+r08ozWFOPYMzx2tU0qDYIodGHig7ROO80Qz3+RJlT4wM+COPmtl8QGoDoMlaA1WTfgt5zwTuKhSByZska7Ces/5GiLvzTrjK2HNQsVfM5BPXzugu6O/cj6leVOl98ATs3Bk2Srncoi+HwR4ywMPYxAVNm7RwL+Paw+UMM6JWSf9HJtj4mIOfHe0ukkPYsAD8wYy0zhXYeVJQiFlMAiImjBK0Cs8JpCHiY1nsCbcRPkF8yjgJkYD7khgOREnoOCeCszFzA1AO3R3tI7b8gecNfkeKFmRfkPtooW+2YsLVMJIm711C0+GNkcSm71xasJKe0X/MGbwOeG7o+WPFYBwjhDMh4mrsLS8Qua8hLA5bZxB5N3mwAQzqUlCuKORasJfGtbgtrm9n2AQA6yasHrq2+TpMsQB4Eir7lJ5UTS6QwLeT4sVGzLuamSjuC9Wjb2Bs6OVSzR5zV781oCpD62cqGpsGyH9XTpbECyj2fnkTn9E/2XpwEAS7X1IJA4K/sPseRYTuEDjJUvmKus+tp2AhBADiAUuFTGMYfZiMXwmXhjEhJeCEdrcuY7LzbpNyjnMEt5UutpmZoN5Mn51Q/9+2UK1RkuLYakjBNWYvB1GLe9xtsO9kE66rt/CTZXG592x3aDHHMg+N9kTP+i3reiRzl/85sOz+Ysb4f2ljKPUc4q3z2y42A66nL8ZoJ88KHW6PFIGI1l9bpuMZ/O3g7gOsIx3GTGMINom01OnQ5lYCPyRic1eRwmRkTNVGp83zqAneh/cRvhqxLl/lhAZzNtWJEjmH05TeIp91O0eFqb26IuNUvqHHE8Ws5C26N19/dPgZW7wCIJYeAS7XhYzWe38Pn9icb6fzf763fR5Nfw7HB2tVGm6n7lPwmfTa/nP0yKOwxSJDNU1avl1CLuiTR2uH/ZfxwUdj8G5sjkjUphokvFn+BhN3xFEvf5hU+SpwnPuui+fKp1MZ35HOHF5T9FsX/Qpn1yRIZkqPb+vBz3xxBI2PlcWrvNIefsRJcxel2h6wI6mrwRRK3xe2DosmbezW5QqHS4OjZYoYgn8pvMyt3kXC2evEO96kfgSTYsXvajbdzdnyxdcsMWwy/QPTPazUccTPZt+p30qZNETwdwaTE+VxsvNuiMRTTe3r+Oy3BPEEhndR8lGTyHdE/UG28WyPJevMPcl3tvZWCkkcvD8pv9S+KInglFxg09pvGKnkED3Gu3jblWiwfuFJTIa12ki3X9wUkhXAq81OryVYWKhcaZXMoLGPk2GX8eReGLxQ7c8EwsNlv2060dNoR8u6nbW1hc9EXFT09YXeJ3RrBSLnoixjk36Ek1vP8s4sVBRtp9Gre7BWjStA1dkPAye3xycTKaQjCB9YKvb6B+Np5CMIHXNRWEpJBMIK26XRS8s96IngnfoQnBResWmkIzAfE79dnQqXTStQ9qnxJ6XRa+zs5FCMsLEJVfFLIX0VqVFT0g6C2/DmKWQKj2x0BmvBz3f8/zuwH0vezSty2S/e33dzau66NXU1NTU1NTU1Njkf2yXroEQJmaYAAAAAElFTkSuQmCC" parent="1" vertex="1">
          <mxGeometry x="500" y="140.25" width="50" height="50" as="geometry" />
        </mxCell>
        <mxCell id="gJbQc6dxg2gx2K5ovGyI-37" value="Google Analytics" style="shape=image;verticalLabelPosition=bottom;verticalAlign=top;imageAspect=0;aspect=fixed;image=data:image/png,iVBORw0KGgoAAAANSUhEUgAAASwAAACoCAMAAABt9SM9AAAAn1BMVEX////5qwDjdAD5pgD5qADibAD97Nb70JL10LjjcgDibgDhaADhZgDibwD5pADhZQD82ar958r88er218T44NHvt5P5tkT83LH5sCn5szj+9+781qH33MrnjEf66uDmhDXnikPuroXxvp3rn2r++vX77ubtqX36xHH+8+X94r77x3v6u1T7yoP55NfyxKbplFblgCnzyrD6wGTkexvvtI2tzvRUAAAFS0lEQVR4nO2da1fiOhSGoW3UXhGQEUTlVlFnBGX0//+2Uy56ekmbvM4MLSvv8zl7mTxr76St7abVIoSQP+bp8nHk2Hb7x8/rm7rn0nAuh5HttHc4djS6rns+DeYyyagMtkNdcp6GOVU7XSMWo4TnqKhqS9Ste2bNY1ziKrH1XPfcmka5K+ZWnm6Fq8TWU93zaxJxpat2e1j3BJvEL6dalj2ue4bNoboId7bqnmJzGKlcMbW+OFMmVkLdk2wKL4oda0t0VvcsG4JGXrWd87pn2QxudKrQ+VX3NJtBV3L/XITn4Y5LLVlRXPc8G8G5xv7OW54DerJsHodbKAuAsgAoC4CyACgLgLIAKAuAsgAoC4CyACgLgLIAKAuAsgAoC4CyACgLgLIAKAuAsgAoC4CyACgLgLIAKAuAsgAoC4CyACgLgLIAKAuAsgAoC4CyACgLgLIAKAuAsgAoC4CyACjri97q9nbVqxpBWTtu1q8iEAm+fze4LxtFWQmr145wrQOuF0wu5OMoqxW/BqGVwfXfVrKRlHXh51TtdHU+JEONlzULiqq2iLviWNNlLYTclWV5k8Jgw2UtS10ltgq5ZbasdUkNHioxv28ZLatX6cqyOrkrLqNlTd1qWW5u2zJZVt+vdmVZfj8TYLKsiSKxktSaZgIMlnWv2LG2BA/pCINlfXhqWWKejjBY1puyCpM6fE1HGCxLowqTLT4dYa6slfIs3MlKPw00V1a/4k7nf8RVKsRcWRd6stJXWpSlkJV+aEpZlKUBZQFQFgBlAVAWAGUBUBYAZQFQFgBlAVAWAGUBUBYAZQFQFgBlAVAWAGUBUBYAZQFQFgBlAVAWAGUBUBYAZQFQFgBlAVAWAGUBUBYAZQFQFgBlAVAWAGUBUBYAZQFQFgBlAVDWgfh2/bFczub9iqZFlLUlXk86QnhhGAoRWLOynkWUlahaBiL11aXrBXfSJjyU1Wqti2143M5CNpKy7qRfXIaupBZNlxVbku5O++TqFwYbLit2yz8RL9oyXNZ71ef0+b4yhstaVPZpcN3ccKNl9RWtB7zcmWi0LEvV0yJXiCbL2ijXnu3+YbSsyt19Tydzp2iwrJVGsxRvkI4wWNZAo2WR+5aOMFjWnUbLIiuIUxEGy9LqwpNpLGOuLFVfyMPKN6kQc2Xd62VWus+aubJWWivPHIeaLaHSN+BjLVnR07FXD6KXWRlZV3j/rGtbS9bNsVcP0tMrwzUc4qfbSXb1ZB178TAdLVmZh1pasoJ0xE2kI2t43JV/A53WkLmuo6pmwVtyDYN1Mst5POrCv8Oy5IFyZuXZR1o6F/3hLBPyW2OHty+Pue5voXO2hctMiE47SXGbCdHZ4Rt/GCYIdVH52ZWrn4BZrsj9FY1Na3S0JX+fmbKo3PdcyFyZjd4sF/KorMMTqMJWK1be8GQuxncoszHIvyvxpEwt+0jr/TMGijzJPqDZoUotb1kIUaXWSSRWS/mstPC/sJbqgsMNixGxYotv/kXWnofKQvTXcEjnVhLSrSzEUzgK9/QrLuNFsaJUIf5AGnJeYSt6/pfr+7tcdMrKype+SJOwKbXl50/CT15KbUUnsmHtuZKfb/Jf/trTD0pC5qUh4xJbp5RXW3pTv7h2L5RtPp88vEsMC/eqIqTrSM5Ee3gy+9UXGze7dtcLyurpk7nIhQi/PBP3vEQ5XbY9/lsrOCqbaSDC7dtHrhsK3xrE6pD1WyokeJ+rQ+LzdmQfhDl2NDyp3SpDb7OcWkm6TBZz+fukRR42i6krhDVdrEt/ZTTH2fj3yLHt9o+f16dXgIQQiP8ADR1zbGfvs7cAAAAASUVORK5CYII=" parent="1" vertex="1">
          <mxGeometry x="650" y="30" width="107.14" height="60" as="geometry" />
        </mxCell>
      </root>
    </mxGraphModel>
  </diagram>
</mxfile>
